<?xml version="1.0" encoding="UTF-8" standalone="no"?>
<!-- Created with Inkscape (http://www.inkscape.org/) -->

<svg
   version="1.1"
   id="svg1"
   width="458"
   height="327.51099"
   viewBox="0 0 458 327.51099"
   sodipodi:docname="cessna-icon-641316-512.png"
   xmlns:inkscape="http://www.inkscape.org/namespaces/inkscape"
   xmlns:sodipodi="http://sodipodi.sourceforge.net/DTD/sodipodi-0.dtd"
   xmlns="http://www.w3.org/2000/svg"
   xmlns:svg="http://www.w3.org/2000/svg">
  <defs
     id="defs1" />
  <sodipodi:namedview
     id="namedview1"
     pagecolor="#505050"
     bordercolor="#ffffff"
     borderopacity="1"
     inkscape:showpageshadow="0"
     inkscape:pageopacity="0"
     inkscape:pagecheckerboard="1"
     inkscape:deskcolor="#505050">
    <inkscape:page
       x="0"
       y="0"
       width="458"
       height="327.51099"
       id="page2"
       margin="0"
       bleed="0" />
  </sodipodi:namedview>
  <g
     inkscape:groupmode="layer"
     inkscape:label="Image"
     id="g1"
     transform="translate(-27,-92.5)">
    <path
       fill="#ffd727ff"
       d="m 211,415.30009 c -15.675,-2.46616 -29.0625,-4.94766 -29.75,-5.51445 -1.91241,-1.57663 -1.76907,-36.10996 0.15651,-37.70805 0.77358,-0.64202 14.38608,-3.67419 30.25,-6.73816 15.86392,-3.06398 29.03678,-5.74958 29.27302,-5.96801 0.23624,-0.21843 -2.23737,-24.24136 -5.49693,-53.38429 L 229.50614,253 H 186.78215 144.05817 L 86.933211,245.04288 C 55.514486,240.66646 29.176398,236.56136 28.404128,235.92043 27.266217,234.97605 27,229.9503 27,209.41274 c 0,-23.75371 0.117513,-25.40526 1.874575,-26.34561 1.031017,-0.55179 29.052465,-2.81762 62.269885,-5.03519 C 145.07353,174.43168 155.68642,174 190.26988,174 H 229 v -8.93828 c 0,-7.67026 3.04087,-37.03128 4.5356,-43.79338 0.69051,-3.12382 5.82206,-8.71146 9.70383,-10.56631 2.78351,-1.33006 3.70081,-2.77562 6.26949,-9.88002 C 252.49543,92.561997 252.54379,92.5 256,92.5 c 3.45422,0 3.50629,0.06651 6.49108,8.29021 2.4475,6.74338 3.56868,8.57439 6.00892,9.81324 4.40727,2.23747 8.31795,6.30181 9.44054,9.8115 C 279.542,125.42182 283,156.21053 283,165.4625 V 174 h 38.73012 c 34.58346,0 45.19635,0.43168 99.12542,4.03194 33.21742,2.21757 61.23887,4.4834 62.26988,5.03519 1.75707,0.94035 1.87458,2.5919 1.87458,26.34561 0,20.57984 -0.2648,25.56214 -1.40908,26.5118 -0.77499,0.64319 -25.41249,4.60109 -54.75,8.79534 l -53.34092,7.6259 -46.46337,0.57711 -46.46338,0.57711 -5.95152,52.75177 c -3.27334,29.01347 -5.76483,52.92389 -5.53663,53.13428 0.22819,0.21038 13.39447,2.8894 29.25839,5.95338 15.86392,3.06397 29.47642,6.09614 30.25,6.73816 1.92574,1.59822 2.06914,36.13779 0.15651,37.69567 -1.31316,1.06959 -59.02576,10.25662 -64.31291,10.2377 -2.08858,-0.007 -3.9772,-0.96527 -5.93709,-3.01096 -1.5808,-1.65 -3.28773,-3 -3.79319,-3 -0.50545,0 -2.62352,1.35 -4.70681,3 -4.91267,3.89091 -5.66201,3.85984 -41,-1.69991 z m 54.07692,-151.22317 c 3.14727,-3.14726 3.46295,-4.52675 1.94783,-8.51182 -0.95075,-2.50067 -1.20823,-2.56472 -10.25,-2.54979 -5.10111,0.008 -9.8801,0.39897 -10.61998,0.86788 -0.73988,0.4689 -1.3932,2.54463 -1.45182,4.61271 -0.16222,5.72276 3.57598,8.5041 11.42974,8.5041 5.32163,0 6.36075,-0.3396 8.94423,-2.92308 z M 272,168.86635 C 272,163.46791 263.94886,158 256,158 c -7.91521,0 -16,5.6272 -16,11.13636 V 172 h 16 16 z"
       id="path1" />
  </g>
</svg>
